<svg width="20" height="23" viewBox="0 0 20 23" fill="none" xmlns="http://www.w3.org/2000/svg">
<path d="M10 0C6.6916 0 4 2.6916 4 6C4 9.3084 6.6916 12 10 12C13.3084 12 16 9.3084 16 6C16 2.6916 13.3084 0 10 0Z" fill="white"/>
<path d="M17.4652 15.9198C15.8225 14.2518 13.6448 13.3333 11.3333 13.3333H8.66667C6.3552 13.3333 4.17751 14.2518 2.53484 15.9198C0.900222 17.5795 0 19.7703 0 22.0889C0 22.457 0.298489 22.7555 0.666667 22.7555H19.3333C19.7015 22.7555 20 22.457 20 22.0889C20 19.7703 19.0998 17.5795 17.4652 15.9198Z" fill="white"/>
</svg>
