<svg width="9" height="42" viewBox="0 0 9 42" fill="none" xmlns="http://www.w3.org/2000/svg">
<path d="M2.15625 16.6133C2.15625 16.1641 2.30599 15.7995 2.60547 15.5195C2.91146 15.2396 3.29232 15.0996 3.74805 15.0996C4.21029 15.0996 4.59115 15.2396 4.89062 15.5195C5.19661 15.7995 5.34961 16.1641 5.34961 16.6133C5.34961 17.056 5.19987 17.4173 4.90039 17.6973C4.60091 17.9707 4.2168 18.1074 3.74805 18.1074C3.28581 18.1074 2.90495 17.9707 2.60547 17.6973C2.30599 17.4173 2.15625 17.056 2.15625 16.6133Z" fill="#7D7D7D"/>
<path d="M2.15576 25.4072C2.15576 24.958 2.3055 24.5934 2.60498 24.3135C2.91097 24.0335 3.29183 23.8936 3.74756 23.8936C4.2098 23.8936 4.59066 24.0335 4.89014 24.3135C5.19613 24.5934 5.34912 24.958 5.34912 25.4072C5.34912 25.8499 5.19938 26.2113 4.8999 26.4912C4.60042 26.7646 4.21631 26.9014 3.74756 26.9014C3.28532 26.9014 2.90446 26.7646 2.60498 26.4912C2.3055 26.2113 2.15576 25.8499 2.15576 25.4072Z" fill="#7D7D7D"/>
<path d="M2.15576 34.2007C2.15576 33.7515 2.3055 33.3869 2.60498 33.1069C2.91097 32.827 3.29183 32.687 3.74756 32.687C4.2098 32.687 4.59066 32.827 4.89014 33.1069C5.19613 33.3869 5.34912 33.7515 5.34912 34.2007C5.34912 34.6434 5.19938 35.0047 4.8999 35.2847C4.60042 35.5581 4.21631 35.6948 3.74756 35.6948C3.28532 35.6948 2.90446 35.5581 2.60498 35.2847C2.3055 35.0047 2.15576 34.6434 2.15576 34.2007Z" fill="#7D7D7D"/>
</svg>
