<svg width="20" height="18" viewBox="0 0 20 18" fill="none" xmlns="http://www.w3.org/2000/svg">
<path d="M0.585067 14.0629H15.8983C16.0356 14.0629 16.1683 14.0149 16.2736 13.9273C16.4207 13.8041 19.7758 10.9179 19.9804 4.6875H3.53434C3.33054 10.343 0.240637 13.0012 0.208527 13.0278C0.020276 13.1868 -0.0489849 13.4466 0.0357064 13.6778C0.119812 13.9084 0.339001 14.0629 0.585067 14.0629Z" fill="white"/>
<path d="M19.414 1.17193H16.4842V0.585964C16.4842 0.257824 16.2264 0 15.8983 0C15.5701 0 15.3123 0.257824 15.3123 0.585964V1.17193H12.3434V0.585964C12.3434 0.257824 12.0856 0 11.7574 0C11.4293 0 11.1715 0.257824 11.1715 0.585964V1.17193H8.24166V0.585964C8.24166 0.257824 7.98384 0 7.6557 0C7.32756 0 7.06974 0.257824 7.06974 0.585964V1.17193H4.13992C3.81178 1.17193 3.55396 1.42975 3.55396 1.75789V3.51578H20V1.75789C20 1.42975 19.7422 1.17193 19.414 1.17193Z" fill="white"/>
<path d="M17.0261 14.8258C16.7079 15.0907 16.3085 15.2349 15.8983 15.2349H3.55396V16.9928C3.55396 17.3167 3.81604 17.5788 4.13992 17.5788H19.414C19.7379 17.5788 20 17.3167 20 16.9928V10.4243C18.8703 13.196 17.2938 14.6017 17.0261 14.8258Z" fill="white"/>
</svg>
