<svg width="7" height="35" viewBox="0 0 7 35" fill="none" xmlns="http://www.w3.org/2000/svg">
<path d="M2.21118 16.6133C2.21118 16.1641 2.36092 15.7995 2.6604 15.5195C2.96639 15.2396 3.34725 15.0996 3.80298 15.0996C4.26522 15.0996 4.64608 15.2396 4.94556 15.5195C5.25155 15.7995 5.40454 16.1641 5.40454 16.6133C5.40454 17.056 5.2548 17.4173 4.95532 17.6973C4.65584 17.9707 4.27173 18.1074 3.80298 18.1074C3.34074 18.1074 2.95988 17.9707 2.6604 17.6973C2.36092 17.4173 2.21118 17.056 2.21118 16.6133Z" fill="#EDEDED"/>
<path d="M2.21118 23.8636C2.21118 23.4144 2.36092 23.0498 2.6604 22.7699C2.96639 22.4899 3.34725 22.35 3.80298 22.35C4.26522 22.35 4.64608 22.4899 4.94556 22.7699C5.25155 23.0498 5.40454 23.4144 5.40454 23.8636C5.40454 24.3064 5.2548 24.6677 4.95532 24.9476C4.65584 25.2211 4.27173 25.3578 3.80298 25.3578C3.34074 25.3578 2.95988 25.2211 2.6604 24.9476C2.36092 24.6677 2.21118 24.3064 2.21118 23.8636Z" fill="#EDEDED"/>
<path d="M2.21118 31.1139C2.21118 30.6647 2.36092 30.3001 2.6604 30.0201C2.96639 29.7402 3.34725 29.6002 3.80298 29.6002C4.26522 29.6002 4.64608 29.7402 4.94556 30.0201C5.25155 30.3001 5.40454 30.6647 5.40454 31.1139C5.40454 31.5566 5.2548 31.9179 4.95532 32.1979C4.65584 32.4713 4.27173 32.608 3.80298 32.608C3.34074 32.608 2.95988 32.4713 2.6604 32.1979C2.36092 31.9179 2.21118 31.5566 2.21118 31.1139Z" fill="#EDEDED"/>
</svg>
