<svg width="20" height="20" viewBox="0 0 20 20" fill="none" xmlns="http://www.w3.org/2000/svg">
<path d="M2.91953 12.8156C2.80631 13.0414 2.85041 13.3144 3.02878 13.4929L3.17206 13.6362C3.58603 13.1457 4.06852 12.6133 4.65369 12.0283C4.69504 11.9869 4.73761 11.9669 4.77912 11.9288L3.85734 11.0068C3.32145 11.9761 3.00895 12.6383 2.91953 12.8156Z" fill="black"/>
<path d="M7.96829 15.3427C7.38174 15.9293 6.85074 16.4127 6.36292 16.8269L6.55701 17.021C6.73706 17.2011 7.01263 17.2444 7.23923 17.1278C7.54272 16.9714 8.02002 16.7468 9.0332 16.1826L8.06793 15.2173C8.02978 15.2589 8.00979 15.3014 7.96829 15.3427V15.3427Z" fill="black"/>
<path d="M7.65591 12.3413C7.23248 11.9178 6.04169 12.2975 5.4823 12.8567C3.61096 14.728 2.76578 16.0548 2.38629 16.8382C2.2775 17.0626 2.32282 17.3313 2.49921 17.5077C2.67591 17.6846 2.94507 17.7294 3.16968 17.6206C3.93552 17.2488 5.24609 16.4076 7.13971 14.5141C7.75479 13.8987 8.05829 12.7438 7.65637 12.3417L7.65591 12.3413Z" fill="black"/>
<path d="M1.82889 7.80136L0.17163 9.45862C-0.0157476 9.646 -0.0541997 9.93606 0.0785517 10.1659C0.208099 10.3926 0.4794 10.5081 0.737578 10.439C1.63327 10.1988 2.42138 10.0973 2.95208 10.2335C3.70709 8.89114 4.5184 7.65549 5.37762 6.53305C4.88064 6.21445 3.23834 6.39191 1.82889 7.80136V7.80136Z" fill="black"/>
<path d="M9.91766 19.9369C10.1433 20.0511 10.4166 20.007 10.5953 19.8282L12.2527 18.1709C13.5358 16.8875 13.7617 15.2316 13.4705 14.7065C12.2187 15.65 10.9505 16.4467 9.76737 17.1136C9.849 17.5746 9.79468 18.0218 9.60166 19.328C9.56397 19.5808 9.69458 19.8254 9.91766 19.9369V19.9369Z" fill="black"/>
<path d="M11.6329 5.87784C10.9476 6.56326 10.9476 7.67822 11.6329 8.36364C12.3183 9.04907 13.4334 9.04907 14.1188 8.36364C14.8042 7.67822 14.8042 6.56326 14.1188 5.87784C13.4334 5.19241 12.3183 5.19241 11.6329 5.87784Z" fill="black"/>
<path d="M19.9654 0.571543C19.9444 0.281779 19.7137 0.0527446 19.4248 0.0310772C17.9858 -0.0772601 16.5524 0.0997417 15.1473 0.529429C15.2531 1.4947 15.7523 2.53931 16.6047 3.39167C17.4673 4.2541 18.5403 4.75321 19.5228 4.84659C19.9012 3.52045 20.0807 2.10017 19.9654 0.571543V0.571543Z" fill="black"/>
<path d="M15.7761 4.22058C14.8011 3.24554 14.2057 2.07611 14.0146 0.9375C10.4961 2.38052 7.1279 5.53176 4.46631 9.95864L5.78863 11.281C6.69211 10.9141 7.78891 10.8173 8.48455 11.5127C9.18112 12.2095 9.08239 13.3058 8.71572 14.2081L10.0815 15.5739C13.4876 13.5211 17.4531 10.287 19.1393 5.98419C17.9729 5.80795 16.767 5.21148 15.7761 4.22058V4.22058ZM14.9473 9.19234C13.8051 10.3345 11.9465 10.3345 10.8042 9.19234C9.66192 8.05007 9.66192 6.19125 10.8042 5.04913C11.9465 3.90701 13.8051 3.90701 14.9473 5.04913C16.0895 6.1914 16.0895 8.05007 14.9473 9.19234Z" fill="black"/>
</svg>
