<svg width="17" height="18" viewBox="0 0 17 18" fill="none" xmlns="http://www.w3.org/2000/svg">
<path d="M15.0027 9.8775C15.0354 9.59625 15.0573 9.30375 15.0573 9C15.0573 8.69625 15.0354 8.40375 14.9917 8.1225L16.8387 6.6375C17.0026 6.5025 17.0463 6.255 16.948 6.06375L15.1994 2.9475C15.0901 2.745 14.8606 2.6775 14.6639 2.745L12.489 3.645C12.03 3.285 11.5491 2.9925 11.0136 2.7675L10.6858 0.3825C10.653 0.1575 10.4672 0 10.2486 0H6.75139C6.53281 0 6.35795 0.1575 6.32516 0.3825L5.9973 2.7675C5.46179 2.9925 4.96999 3.29625 4.52191 3.645L2.34707 2.745C2.15035 2.66625 1.92085 2.745 1.81156 2.9475L0.062945 6.06375C-0.0463433 6.26625 -0.00262785 6.5025 0.172233 6.6375L2.01921 8.1225C1.97549 8.40375 1.9427 8.7075 1.9427 9C1.9427 9.2925 1.96456 9.59625 2.00828 9.8775L0.161304 11.3625C-0.00262811 11.4975 -0.0463433 11.745 0.0520161 11.9362L1.80063 15.0525C1.90992 15.255 2.13942 15.3225 2.33614 15.255L4.51098 14.355C4.96999 14.715 5.45086 15.0075 5.98637 15.2325L6.31424 17.6175C6.35795 17.8425 6.53281 18 6.75139 18H10.2486C10.4672 18 10.653 17.8425 10.6748 17.6175L11.0027 15.2325C11.5382 15.0075 12.03 14.7038 12.4781 14.355L14.6529 15.255C14.8497 15.3338 15.0792 15.255 15.1884 15.0525L16.9371 11.9362C17.0463 11.7337 17.0026 11.4975 16.8278 11.3625L15.0027 9.8775V9.8775ZM8.5 12.375C6.69674 12.375 5.22135 10.8562 5.22135 9C5.22135 7.14375 6.69674 5.625 8.5 5.625C10.3033 5.625 11.7786 7.14375 11.7786 9C11.7786 10.8562 10.3033 12.375 8.5 12.375Z" fill="white"/>
</svg>
